<?xml version='1.0' encoding='UTF-8'?>
<svg width="49mm" height="49mm" version="1.1" viewBox="0 0 49 49" xmlns="http://www.w3.org/2000/svg"><path d="M4,4H5V5H4zM5,4H6V5H5zM6,4H7V5H6zM7,4H8V5H7zM8,4H9V5H8zM9,4H10V5H9zM10,4H11V5H10zM13,4H14V5H13zM16,4H17V5H16zM18,4H19V5H18zM20,4H21V5H20zM21,4H22V5H21zM22,4H23V5H22zM26,4H27V5H26zM29,4H30V5H29zM30,4H31V5H30zM32,4H33V5H32zM33,4H34V5H33zM35,4H36V5H35zM36,4H37V5H36zM38,4H39V5H38zM39,4H40V5H39zM40,4H41V5H40zM41,4H42V5H41zM42,4H43V5H42zM43,4H44V5H43zM44,4H45V5H44zM4,5H5V6H4zM10,5H11V6H10zM13,5H14V6H13zM15,5H16V6H15zM16,5H17V6H16zM18,5H19V6H18zM19,5H20V6H19zM20,5H21V6H20zM21,5H22V6H21zM22,5H23V6H22zM23,5H24V6H23zM24,5H25V6H24zM25,5H26V6H25zM26,5H27V6H26zM28,5H29V6H28zM29,5H30V6H29zM32,5H33V6H32zM33,5H34V6H33zM34,5H35V6H34zM38,5H39V6H38zM44,5H45V6H44zM4,6H5V7H4zM6,6H7V7H6zM7,6H8V7H7zM8,6H9V7H8zM10,6H11V7H10zM13,6H14V7H13zM14,6H15V7H14zM15,6H16V7H15zM16,6H17V7H16zM17,6H18V7H17zM19,6H20V7H19zM20,6H21V7H20zM21,6H22V7H21zM23,6H24V7H23zM24,6H25V7H24zM25,6H26V7H25zM26,6H27V7H26zM27,6H28V7H27zM29,6H30V7H29zM30,6H31V7H30zM32,6H33V7H32zM34,6H35V7H34zM36,6H37V7H36zM38,6H39V7H38zM40,6H41V7H40zM41,6H42V7H41zM42,6H43V7H42zM44,6H45V7H44zM4,7H5V8H4zM6,7H7V8H6zM7,7H8V8H7zM8,7H9V8H8zM10,7H11V8H10zM15,7H16V8H15zM18,7H19V8H18zM19,7H20V8H19zM22,7H23V8H22zM23,7H24V8H23zM24,7H25V8H24zM26,7H27V8H26zM27,7H28V8H27zM28,7H29V8H28zM32,7H33V8H32zM33,7H34V8H33zM35,7H36V8H35zM38,7H39V8H38zM40,7H41V8H40zM41,7H42V8H41zM42,7H43V8H42zM44,7H45V8H44zM4,8H5V9H4zM6,8H7V9H6zM7,8H8V9H7zM8,8H9V9H8zM10,8H11V9H10zM12,8H13V9H12zM13,8H14V9H13zM14,8H15V9H14zM15,8H16V9H15zM19,8H20V9H19zM21,8H22V9H21zM22,8H23V9H22zM23,8H24V9H23zM27,8H28V9H27zM29,8H30V9H29zM30,8H31V9H30zM31,8H32V9H31zM32,8H33V9H32zM33,8H34V9H33zM34,8H35V9H34zM35,8H36V9H35zM38,8H39V9H38zM40,8H41V9H40zM41,8H42V9H41zM42,8H43V9H42zM44,8H45V9H44zM4,9H5V10H4zM10,9H11V10H10zM15,9H16V10H15zM17,9H18V10H17zM21,9H22V10H21zM23,9H24V10H23zM25,9H26V10H25zM26,9H27V10H26zM27,9H28V10H27zM29,9H30V10H29zM33,9H34V10H33zM35,9H36V10H35zM36,9H37V10H36zM38,9H39V10H38zM44,9H45V10H44zM4,10H5V11H4zM5,10H6V11H5zM6,10H7V11H6zM7,10H8V11H7zM8,10H9V11H8zM9,10H10V11H9zM10,10H11V11H10zM12,10H13V11H12zM14,10H15V11H14zM16,10H17V11H16zM18,10H19V11H18zM20,10H21V11H20zM22,10H23V11H22zM24,10H25V11H24zM26,10H27V11H26zM28,10H29V11H28zM30,10H31V11H30zM32,10H33V11H32zM34,10H35V11H34zM36,10H37V11H36zM38,10H39V11H38zM39,10H40V11H39zM40,10H41V11H40zM41,10H42V11H41zM42,10H43V11H42zM43,10H44V11H43zM44,10H45V11H44zM12,11H13V12H12zM13,11H14V12H13zM15,11H16V12H15zM16,11H17V12H16zM20,11H21V12H20zM24,11H25V12H24zM25,11H26V12H25zM32,11H33V12H32zM33,11H34V12H33zM36,11H37V12H36zM6,12H7V13H6zM7,12H8V13H7zM10,12H11V13H10zM11,12H12V13H11zM12,12H13V13H12zM13,12H14V13H13zM15,12H16V13H15zM18,12H19V13H18zM19,12H20V13H19zM20,12H21V13H20zM21,12H22V13H21zM23,12H24V13H23zM27,12H28V13H27zM31,12H32V13H31zM32,12H33V13H32zM33,12H34V13H33zM34,12H35V13H34zM35,12H36V13H35zM37,12H38V13H37zM38,12H39V13H38zM40,12H41V13H40zM4,13H5V14H4zM5,13H6V14H5zM8,13H9V14H8zM12,13H13V14H12zM13,13H14V14H13zM14,13H15V14H14zM15,13H16V14H15zM16,13H17V14H16zM18,13H19V14H18zM21,13H22V14H21zM23,13H24V14H23zM24,13H25V14H24zM25,13H26V14H25zM26,13H27V14H26zM33,13H34V14H33zM35,13H36V14H35zM36,13H37V14H36zM38,13H39V14H38zM39,13H40V14H39zM40,13H41V14H40zM42,13H43V14H42zM44,13H45V14H44zM4,14H5V15H4zM6,14H7V15H6zM8,14H9V15H8zM10,14H11V15H10zM15,14H16V15H15zM17,14H18V15H17zM20,14H21V15H20zM21,14H22V15H21zM23,14H24V15H23zM24,14H25V15H24zM25,14H26V15H25zM26,14H27V15H26zM27,14H28V15H27zM34,14H35V15H34zM38,14H39V15H38zM40,14H41V15H40zM42,14H43V15H42zM43,14H44V15H43zM8,15H9V16H8zM9,15H10V16H9zM11,15H12V16H11zM15,15H16V16H15zM17,15H18V16H17zM18,15H19V16H18zM20,15H21V16H20zM21,15H22V16H21zM23,15H24V16H23zM26,15H27V16H26zM28,15H29V16H28zM29,15H30V16H29zM31,15H32V16H31zM36,15H37V16H36zM37,15H38V16H37zM38,15H39V16H38zM39,15H40V16H39zM40,15H41V16H40zM44,15H45V16H44zM4,16H5V17H4zM5,16H6V17H5zM6,16H7V17H6zM8,16H9V17H8zM9,16H10V17H9zM10,16H11V17H10zM14,16H15V17H14zM16,16H17V17H16zM18,16H19V17H18zM19,16H20V17H19zM21,16H22V17H21zM22,16H23V17H22zM24,16H25V17H24zM25,16H26V17H25zM29,16H30V17H29zM33,16H34V17H33zM35,16H36V17H35zM41,16H42V17H41zM42,16H43V17H42zM43,16H44V17H43zM44,16H45V17H44zM5,17H6V18H5zM7,17H8V18H7zM9,17H10V18H9zM12,17H13V18H12zM14,17H15V18H14zM15,17H16V18H15zM16,17H17V18H16zM17,17H18V18H17zM24,17H25V18H24zM27,17H28V18H27zM28,17H29V18H28zM30,17H31V18H30zM31,17H32V18H31zM33,17H34V18H33zM35,17H36V18H35zM38,17H39V18H38zM41,17H42V18H41zM44,17H45V18H44zM4,18H5V19H4zM5,18H6V19H5zM6,18H7V19H6zM8,18H9V19H8zM10,18H11V19H10zM11,18H12V19H11zM12,18H13V19H12zM13,18H14V19H13zM15,18H16V19H15zM17,18H18V19H17zM22,18H23V19H22zM24,18H25V19H24zM26,18H27V19H26zM27,18H28V19H27zM29,18H30V19H29zM32,18H33V19H32zM33,18H34V19H33zM35,18H36V19H35zM38,18H39V19H38zM39,18H40V19H39zM43,18H44V19H43zM44,18H45V19H44zM5,19H6V20H5zM6,19H7V20H6zM7,19H8V20H7zM12,19H13V20H12zM13,19H14V20H13zM14,19H15V20H14zM19,19H20V20H19zM20,19H21V20H20zM21,19H22V20H21zM25,19H26V20H25zM27,19H28V20H27zM28,19H29V20H28zM29,19H30V20H29zM30,19H31V20H30zM34,19H35V20H34zM36,19H37V20H36zM38,19H39V20H38zM41,19H42V20H41zM5,20H6V21H5zM6,20H7V21H6zM7,20H8V21H7zM8,20H9V21H8zM10,20H11V21H10zM11,20H12V21H11zM13,20H14V21H13zM15,20H16V21H15zM16,20H17V21H16zM17,20H18V21H17zM22,20H23V21H22zM23,20H24V21H23zM25,20H26V21H25zM26,20H27V21H26zM28,20H29V21H28zM29,20H30V21H29zM30,20H31V21H30zM34,20H35V21H34zM36,20H37V21H36zM40,20H41V21H40zM43,20H44V21H43zM44,20H45V21H44zM4,21H5V22H4zM7,21H8V22H7zM13,21H14V22H13zM16,21H17V22H16zM18,21H19V22H18zM19,21H20V22H19zM20,21H21V22H20zM22,21H23V22H22zM25,21H26V22H25zM26,21H27V22H26zM27,21H28V22H27zM30,21H31V22H30zM31,21H32V22H31zM34,21H35V22H34zM36,21H37V22H36zM37,21H38V22H37zM39,21H40V22H39zM42,21H43V22H42zM5,22H6V23H5zM6,22H7V23H6zM7,22H8V23H7zM8,22H9V23H8zM10,22H11V23H10zM13,22H14V23H13zM14,22H15V23H14zM15,22H16V23H15zM16,22H17V23H16zM18,22H19V23H18zM19,22H20V23H19zM21,22H22V23H21zM25,22H26V23H25zM26,22H27V23H26zM27,22H28V23H27zM28,22H29V23H28zM30,22H31V23H30zM31,22H32V23H31zM32,22H33V23H32zM33,22H34V23H33zM34,22H35V23H34zM38,22H39V23H38zM40,22H41V23H40zM4,23H5V24H4zM6,23H7V24H6zM7,23H8V24H7zM8,23H9V24H8zM13,23H14V24H13zM14,23H15V24H14zM16,23H17V24H16zM20,23H21V24H20zM22,23H23V24H22zM28,23H29V24H28zM29,23H30V24H29zM30,23H31V24H30zM31,23H32V24H31zM32,23H33V24H32zM33,23H34V24H33zM34,23H35V24H34zM38,23H39V24H38zM39,23H40V24H39zM41,23H42V24H41zM42,23H43V24H42zM43,23H44V24H43zM4,24H5V25H4zM5,24H6V25H5zM8,24H9V25H8zM10,24H11V25H10zM11,24H12V25H11zM12,24H13V25H12zM17,24H18V25H17zM18,24H19V25H18zM22,24H23V25H22zM24,24H25V25H24zM25,24H26V25H25zM32,24H33V25H32zM33,24H34V25H33zM34,24H35V25H34zM35,24H36V25H35zM37,24H38V25H37zM38,24H39V25H38zM40,24H41V25H40zM41,24H42V25H41zM42,24H43V25H42zM7,25H8V26H7zM8,25H9V26H8zM9,25H10V26H9zM13,25H14V26H13zM15,25H16V26H15zM17,25H18V26H17zM18,25H19V26H18zM19,25H20V26H19zM21,25H22V26H21zM22,25H23V26H22zM23,25H24V26H23zM24,25H25V26H24zM26,25H27V26H26zM28,25H29V26H28zM29,25H30V26H29zM32,25H33V26H32zM34,25H35V26H34zM35,25H36V26H35zM36,25H37V26H36zM37,25H38V26H37zM38,25H39V26H38zM39,25H40V26H39zM40,25H41V26H40zM41,25H42V26H41zM43,25H44V26H43zM44,25H45V26H44zM4,26H5V27H4zM8,26H9V27H8zM10,26H11V27H10zM11,26H12V27H11zM12,26H13V27H12zM16,26H17V27H16zM17,26H18V27H17zM18,26H19V27H18zM20,26H21V27H20zM21,26H22V27H21zM24,26H25V27H24zM26,26H27V27H26zM27,26H28V27H27zM28,26H29V27H28zM30,26H31V27H30zM39,26H40V27H39zM40,26H41V27H40zM41,26H42V27H41zM42,26H43V27H42zM43,26H44V27H43zM4,27H5V28H4zM5,27H6V28H5zM6,27H7V28H6zM8,27H9V28H8zM9,27H10V28H9zM12,27H13V28H12zM13,27H14V28H13zM16,27H17V28H16zM23,27H24V28H23zM25,27H26V28H25zM26,27H27V28H26zM27,27H28V28H27zM28,27H29V28H28zM30,27H31V28H30zM35,27H36V28H35zM36,27H37V28H36zM39,27H40V28H39zM40,27H41V28H40zM4,28H5V29H4zM6,28H7V29H6zM10,28H11V29H10zM11,28H12V29H11zM15,28H16V29H15zM16,28H17V29H16zM17,28H18V29H17zM18,28H19V29H18zM21,28H22V29H21zM22,28H23V29H22zM24,28H25V29H24zM25,28H26V29H25zM26,28H27V29H26zM29,28H30V29H29zM31,28H32V29H31zM33,28H34V29H33zM35,28H36V29H35zM42,28H43V29H42zM43,28H44V29H43zM44,28H45V29H44zM4,29H5V30H4zM5,29H6V30H5zM6,29H7V30H6zM7,29H8V30H7zM9,29H10V30H9zM11,29H12V30H11zM14,29H15V30H14zM15,29H16V30H15zM16,29H17V30H16zM17,29H18V30H17zM18,29H19V30H18zM27,29H28V30H27zM28,29H29V30H28zM31,29H32V30H31zM32,29H33V30H32zM33,29H34V30H33zM35,29H36V30H35zM36,29H37V30H36zM38,29H39V30H38zM41,29H42V30H41zM42,29H43V30H42zM44,29H45V30H44zM5,30H6V31H5zM6,30H7V31H6zM8,30H9V31H8zM10,30H11V31H10zM11,30H12V31H11zM13,30H14V31H13zM14,30H15V31H14zM20,30H21V31H20zM22,30H23V31H22zM23,30H24V31H23zM26,30H27V31H26zM27,30H28V31H27zM34,30H35V31H34zM35,30H36V31H35zM36,30H37V31H36zM37,30H38V31H37zM40,30H41V31H40zM41,30H42V31H41zM43,30H44V31H43zM44,30H45V31H44zM8,31H9V32H8zM9,31H10V32H9zM11,31H12V32H11zM14,31H15V32H14zM15,31H16V32H15zM16,31H17V32H16zM18,31H19V32H18zM19,31H20V32H19zM20,31H21V32H20zM25,31H26V32H25zM26,31H27V32H26zM27,31H28V32H27zM29,31H30V32H29zM30,31H31V32H30zM31,31H32V32H31zM34,31H35V32H34zM35,31H36V32H35zM36,31H37V32H36zM38,31H39V32H38zM40,31H41V32H40zM41,31H42V32H41zM43,31H44V32H43zM7,32H8V33H7zM8,32H9V33H8zM10,32H11V33H10zM12,32H13V33H12zM14,32H15V33H14zM16,32H17V33H16zM17,32H18V33H17zM19,32H20V33H19zM20,32H21V33H20zM23,32H24V33H23zM26,32H27V33H26zM27,32H28V33H27zM28,32H29V33H28zM30,32H31V33H30zM31,32H32V33H31zM35,32H36V33H35zM39,32H40V33H39zM40,32H41V33H40zM41,32H42V33H41zM43,32H44V33H43zM6,33H7V34H6zM7,33H8V34H7zM8,33H9V34H8zM9,33H10V34H9zM13,33H14V34H13zM14,33H15V34H14zM23,33H24V34H23zM27,33H28V34H27zM29,33H30V34H29zM31,33H32V34H31zM33,33H34V34H33zM36,33H37V34H36zM39,33H40V34H39zM41,33H42V34H41zM4,34H5V35H4zM8,34H9V35H8zM10,34H11V35H10zM14,34H15V35H14zM15,34H16V35H15zM16,34H17V35H16zM17,34H18V35H17zM22,34H23V35H22zM24,34H25V35H24zM25,34H26V35H25zM26,34H27V35H26zM28,34H29V35H28zM29,34H30V35H29zM30,34H31V35H30zM31,34H32V35H31zM32,34H33V35H32zM34,34H35V35H34zM36,34H37V35H36zM37,34H38V35H37zM38,34H39V35H38zM39,34H40V35H39zM41,34H42V35H41zM43,34H44V35H43zM6,35H7V36H6zM9,35H10V36H9zM11,35H12V36H11zM13,35H14V36H13zM14,35H15V36H14zM15,35H16V36H15zM20,35H21V36H20zM21,35H22V36H21zM22,35H23V36H22zM25,35H26V36H25zM26,35H27V36H26zM28,35H29V36H28zM29,35H30V36H29zM30,35H31V36H30zM33,35H34V36H33zM34,35H35V36H34zM35,35H36V36H35zM38,35H39V36H38zM41,35H42V36H41zM42,35H43V36H42zM43,35H44V36H43zM44,35H45V36H44zM5,36H6V37H5zM10,36H11V37H10zM15,36H16V37H15zM16,36H17V37H16zM17,36H18V37H17zM19,36H20V37H19zM20,36H21V37H20zM24,36H25V37H24zM26,36H27V37H26zM27,36H28V37H27zM29,36H30V37H29zM30,36H31V37H30zM32,36H33V37H32zM33,36H34V37H33zM36,36H37V37H36zM37,36H38V37H37zM38,36H39V37H38zM39,36H40V37H39zM40,36H41V37H40zM41,36H42V37H41zM42,36H43V37H42zM44,36H45V37H44zM12,37H13V38H12zM16,37H17V38H16zM18,37H19V38H18zM20,37H21V38H20zM22,37H23V38H22zM23,37H24V38H23zM25,37H26V38H25zM27,37H28V38H27zM28,37H29V38H28zM29,37H30V38H29zM32,37H33V38H32zM33,37H34V38H33zM34,37H35V38H34zM35,37H36V38H35zM36,37H37V38H36zM40,37H41V38H40zM43,37H44V38H43zM44,37H45V38H44zM4,38H5V39H4zM5,38H6V39H5zM6,38H7V39H6zM7,38H8V39H7zM8,38H9V39H8zM9,38H10V39H9zM10,38H11V39H10zM12,38H13V39H12zM13,38H14V39H13zM18,38H19V39H18zM19,38H20V39H19zM24,38H25V39H24zM25,38H26V39H25zM27,38H28V39H27zM28,38H29V39H28zM29,38H30V39H29zM33,38H34V39H33zM34,38H35V39H34zM35,38H36V39H35zM36,38H37V39H36zM38,38H39V39H38zM40,38H41V39H40zM41,38H42V39H41zM42,38H43V39H42zM43,38H44V39H43zM4,39H5V40H4zM10,39H11V40H10zM13,39H14V40H13zM14,39H15V40H14zM16,39H17V40H16zM17,39H18V40H17zM18,39H19V40H18zM19,39H20V40H19zM21,39H22V40H21zM23,39H24V40H23zM24,39H25V40H24zM27,39H28V40H27zM28,39H29V40H28zM30,39H31V40H30zM31,39H32V40H31zM36,39H37V40H36zM40,39H41V40H40zM43,39H44V40H43zM44,39H45V40H44zM4,40H5V41H4zM6,40H7V41H6zM7,40H8V41H7zM8,40H9V41H8zM10,40H11V41H10zM13,40H14V41H13zM14,40H15V41H14zM15,40H16V41H15zM20,40H21V41H20zM22,40H23V41H22zM23,40H24V41H23zM25,40H26V41H25zM28,40H29V41H28zM29,40H30V41H29zM32,40H33V41H32zM33,40H34V41H33zM36,40H37V41H36zM37,40H38V41H37zM38,40H39V41H38zM39,40H40V41H39zM40,40H41V41H40zM42,40H43V41H42zM44,40H45V41H44zM4,41H5V42H4zM6,41H7V42H6zM7,41H8V42H7zM8,41H9V42H8zM10,41H11V42H10zM12,41H13V42H12zM13,41H14V42H13zM16,41H17V42H16zM17,41H18V42H17zM19,41H20V42H19zM22,41H23V42H22zM26,41H27V42H26zM27,41H28V42H27zM28,41H29V42H28zM29,41H30V42H29zM31,41H32V42H31zM32,41H33V42H32zM33,41H34V42H33zM35,41H36V42H35zM36,41H37V42H36zM40,41H41V42H40zM42,41H43V42H42zM43,41H44V42H43zM44,41H45V42H44zM4,42H5V43H4zM6,42H7V43H6zM7,42H8V43H7zM8,42H9V43H8zM10,42H11V43H10zM12,42H13V43H12zM13,42H14V43H13zM14,42H15V43H14zM17,42H18V43H17zM18,42H19V43H18zM20,42H21V43H20zM22,42H23V43H22zM28,42H29V43H28zM35,42H36V43H35zM39,42H40V43H39zM41,42H42V43H41zM42,42H43V43H42zM44,42H45V43H44zM4,43H5V44H4zM10,43H11V44H10zM14,43H15V44H14zM17,43H18V44H17zM21,43H22V44H21zM22,43H23V44H22zM24,43H25V44H24zM26,43H27V44H26zM29,43H30V44H29zM30,43H31V44H30zM31,43H32V44H31zM32,43H33V44H32zM36,43H37V44H36zM40,43H41V44H40zM43,43H44V44H43zM4,44H5V45H4zM5,44H6V45H5zM6,44H7V45H6zM7,44H8V45H7zM8,44H9V45H8zM9,44H10V45H9zM10,44H11V45H10zM15,44H16V45H15zM16,44H17V45H16zM17,44H18V45H17zM21,44H22V45H21zM22,44H23V45H22zM23,44H24V45H23zM24,44H25V45H24zM25,44H26V45H25zM27,44H28V45H27zM28,44H29V45H28zM29,44H30V45H29zM31,44H32V45H31zM34,44H35V45H34zM36,44H37V45H36zM37,44H38V45H37zM38,44H39V45H38zM43,44H44V45H43z" id="qr-path" fill="#000000" fill-opacity="1" fill-rule="nonzero" stroke="none"/></svg>